<?xml version="1.0" encoding="UTF-8"?><svg id="a" xmlns="http://www.w3.org/2000/svg" viewBox="0 0 1000 1000"><defs><style>.cls-1{fill:#fff;}</style></defs><path class="cls-1" d="M996.07,571.2l-2.33,12.53-89.44-16.6,2.33-12.53,89.44,16.62h0Zm-41-1.27l-8.01,43.37-11.94-2.21,8.06-43.37,11.88,2.21Zm39.86,7.41l-9.32,50.14-11.94-2.21,9.32-50.14,11.94,2.21Z"/><path class="cls-1" d="M892.41,630.95c4.12-3.54,9.24-5.71,14.65-6.21,6.29-.51,12.61,.45,18.47,2.79l54.43,20.19-4.44,11.96-54.85-20.35c-6.21-2.31-11.6-2.52-16.17-.67s-7.91,5.65-10.03,11.36-2.09,10.82,.15,15.24c2.24,4.41,6.46,7.77,12.67,10.07l54.85,20.35-4.44,11.96-54.43-20.19c-5.98-2.03-11.4-5.41-15.85-9.89-3.78-3.91-6.25-8.91-7.05-14.29-.75-5.98,.04-12.05,2.3-17.63,1.93-5.68,5.29-10.77,9.75-14.78v.08Z"/><path class="cls-1" d="M868.25,687.69c3.57-2.51,7.71-4.07,12.05-4.54l1.39,12.79c-2.37,0-4.68,.73-6.63,2.08-2.19,1.51-3.99,3.52-5.25,5.86-2.43,4.32-2.99,8.43-1.66,12.33s4.42,7.22,9.28,9.97l53.97,30.51-6.28,11.14-54.02-30.54c-4.92-2.61-9.17-6.31-12.42-10.84-2.75-3.95-4.18-8.66-4.11-13.47,.2-5.34,1.76-10.55,4.53-15.13,2.22-4.04,5.34-7.51,9.12-10.15h.04Z"/><path class="cls-1" d="M828.35,747.7l7.47-10.35,73.82,53.23-7.47,10.35-73.82-53.22h0Z"/><path class="cls-1" d="M869.17,840.89l-7.44,7.98-89.34-37.6,9.4-10.06,70.82,31.71-36.38-68.55,9.4-10.06,43.52,86.63v-.06Zm-30.63-53.43l-32.7,34.94-8.87-8.36,32.7-34.82,8.86,8.29v-.06Z"/><path class="cls-1" d="M821.59,887.87l-9.36,6.82-77.37-30.64,.25-2.2,42.38,58.15-10.21,7.44-53.55-73.47,9.46-6.96,76.6,29.85-.25,2.2-41.78-57.28,10.21-7.45,53.62,73.55Z"/><path class="cls-1" d="M647.43,981.47l-10.43,3.09-58.04-77.66,13.2-3.91,45.06,63.17,3.29-77.53,13.19-3.91-6.25,96.75h-.01Zm.57-61.59l-45.88,13.62-3.45-11.63,45.88-13.62,3.45,11.63Z"/><path class="cls-1" d="M562.78,908.38c7.71,.64,15.13,3.21,21.57,7.48l-6.71,10.64c-3.69-2.52-7.82-4.33-12.17-5.33-4.51-1-9.16-1.21-13.75-.6-6.5,.79-11.43,2.61-14.78,5.47-3.23,2.64-4.82,6.81-4.18,10.93h0c.19,2.73,1.39,5.3,3.37,7.19,1.95,1.69,4.31,2.84,6.84,3.33,3.41,.67,6.86,1.08,10.33,1.24,.13,.03,.27,.03,.4,0h1.35c5.1,.18,10.17,.76,15.18,1.73,4.04,.89,7.72,2.97,10.58,5.96,3.11,3.14,5.05,7.89,5.82,14.26h0c.76,5.02,.06,10.15-2.02,14.78-2.15,4.39-5.6,8.01-9.87,10.36-8.18,4.29-17.42,6.13-26.62,5.29-3.27-.34-6.5-1.01-9.64-2.02-3.33-1.07-6.55-2.47-9.61-4.18l5.99-10.93c3.43,1.98,7.12,3.48,10.96,4.44,3.44,.84,7,1.07,10.52,.65,6.17-.75,10.81-2.56,13.93-5.43,3.11-2.81,4.56-7.01,3.86-11.14h0c-.19-2.7-1.46-5.22-3.54-6.96-2.06-1.61-4.49-2.69-7.06-3.15-3.73-.65-7.5-1.09-11.28-1.31h-2.34c-4.79-.32-9.54-1.1-14.18-2.31-3.89-1.11-7.39-3.3-10.1-6.31-2.88-3.12-4.67-7.64-5.39-13.57v-.13c-.76-4.98,0-10.07,2.19-14.61,2.3-4.39,5.87-7.99,10.25-10.32,5.45-2.89,11.41-4.67,17.55-5.24,4.16-.53,8.36-.61,12.53-.25v.03Z"/><path class="cls-1" d="M493.03,912.6h12.76l-.22,91h-12.76l.22-91Z"/><path class="cls-1" d="M441.21,1000.11l-10.79-1.39-21.63-94.51,13.65,1.75,15.63,76.02,34.39-69.64,13.65,1.75-44.89,85.93v.08Zm25.46-56.07l-47.45-6.11,1.55-12.03,47.46,6.11-1.56,12.03Z"/><path class="cls-1" d="M375.23,988.98l-11-3.62-20.22-80.7,1.94-1.07-22.48,68.34-12.01-3.94,28.4-86.35,11.14,3.65,20.5,79.65-1.94,1.07,22.14-67.34,12.01,3.94-28.4,86.35h-.08Z"/><path class="cls-1" d="M212.85,913.41l-40.64-30.79,7.33-9.67,40.64,30.79-7.33,9.75v-.08Zm24.48-32.31l-35.15-26.66,7.33-9.75,35.15,26.64-7.33,9.67v.1Zm-19.5,36.1l-10.17-7.72,54.94-72.51,10.17,7.72-54.94,72.51Z"/><path class="cls-1" d="M210.87,797.73c1.33,5.27,.97,10.82-1,15.88-2.38,5.85-6.08,11.06-10.81,15.24l-42.41,39.65-8.72-9.32,42.73-39.96c4.85-4.52,7.46-9.24,7.83-14.16s-1.52-9.6-5.68-14.04c-4.18-4.48-8.76-6.7-13.7-6.69-4.94,.01-9.83,2.31-14.68,6.84l-42.73,39.96-8.72-9.32,42.41-39.65c4.49-4.44,9.94-7.77,15.93-9.75,5.19-1.63,10.76-1.6,15.93,.1,5.66,2.01,10.72,5.44,14.69,9.94,4.22,4.26,7.28,9.54,8.87,15.32l.06-.04Z"/><path class="cls-1" d="M164.45,738.48c1.42,3.61,2.38,7.39,2.87,11.24,.46,3.79,.46,7.62,0,11.41l-12.53-1.31c.62-4.43,.41-8.93-.61-13.29-1.12-4.47-3-8.71-5.57-12.53-3.61-5.52-7.43-9.12-11.45-10.82-3.8-1.73-8.24-1.3-11.64,1.11h0c-2.37,1.38-4.13,3.59-4.96,6.2-.67,2.49-.67,5.11,0,7.6,.91,3.33,2.07,6.59,3.47,9.75,.03,.13,.09,.26,.17,.38s.14,.24,.17,.38l.36,.89c2.11,4.66,3.86,9.49,5.21,14.43,.98,4.02,.75,8.24-.67,12.13-1.44,4.18-4.84,8.02-10.21,11.53h0c-4.16,2.9-9.07,4.53-14.14,4.72-4.88,.02-9.66-1.47-13.66-4.26-7.47-5.43-13.22-12.9-16.55-21.52-1.14-3.08-1.97-6.28-2.47-9.53-.51-3.46-.69-6.96-.53-10.46l12.45,.53c-.26,3.95,.03,7.92,.88,11.8,.76,3.47,2.14,6.77,4.07,9.75,3.4,5.2,7.08,8.56,11.04,10.08,3.86,1.55,8.25,1.03,11.64-1.39h0c2.36-1.36,4.06-3.62,4.72-6.27,.53-2.56,.42-5.22-.31-7.73-1.07-3.63-2.34-7.21-3.82-10.7-.05-.15-.11-.3-.18-.45,0-.14-.13-.28-.18-.45l-.26-.64-.28-.64c-1.82-4.44-3.22-9.03-4.18-13.73-.72-3.98-.31-8.08,1.18-11.84,1.51-3.96,4.76-7.57,9.75-10.84l.11-.07c4.13-2.88,9.03-4.45,14.07-4.5,4.96,.12,9.76,1.73,13.79,4.62,5.02,3.6,9.28,8.16,12.53,13.41,2.31,3.5,4.24,7.24,5.77,11.14l-.06-.15Z"/><path class="cls-1" d="M129.75,677.8l5.57,11.45-81.64,40.11-5.57-11.45,81.64-40.12h0Z"/><path class="cls-1" d="M114.64,651.41c-1.06,5.44-3.68,10.44-7.53,14.41-4.29,4.35-9.58,7.58-15.4,9.41l-24.41,8.27c-5.74,2.08-11.9,2.73-17.95,1.89-5.48-.8-10.61-3.19-14.75-6.87-8.62-8.15-12.65-20.04-10.75-31.75,1.06-5.44,3.68-10.44,7.53-14.41,4.29-4.35,9.58-7.58,15.4-9.41l24.41-8.27c5.74-2.09,11.9-2.73,17.95-1.88,5.48,.8,10.6,3.19,14.74,6.87,8.62,8.16,12.64,20.05,10.75,31.77v-.03Zm-18.91-21.75c-2.53-2.17-5.64-3.55-8.94-3.97-3.7-.46-7.47-.03-10.97,1.24l-25.25,8.55c-3.56,1.12-6.81,3.07-9.47,5.68-2.36,2.35-3.99,5.33-4.69,8.59-1.22,6.94,1.18,14.02,6.36,18.79,2.53,2.16,5.64,3.54,8.94,3.97,3.7,.46,7.47,.03,10.97-1.24l25.24-8.55c3.56-1.12,6.81-3.07,9.47-5.68,2.37-2.35,4-5.33,4.69-8.59,1.22-6.94-1.18-14.02-6.36-18.79h.01Z"/><path class="cls-1" d="M9.26,606.07l-1.6-11.46,63.52-53.76,1.82,1.27L1.74,552.04l-1.74-12.53,90.04-12.53,1.62,11.59-62.41,53.5-1.82-1.27,70.21-9.75,1.74,12.53-90.04,12.53-.07-.03Z"/><path class="cls-1" d="M3.91,435.74l2.33-12.53,89.44,16.62-2.33,12.53L3.91,435.74Zm1.14-6.16l9.32-50.14,11.94,2.21-9.32,50.14-11.94-2.21Zm39.86,7.41l8.01-43.37,11.94,2.21-8.06,43.37-11.88-2.21Z"/><path class="cls-1" d="M107.58,375.99c-4.12,3.54-9.24,5.71-14.65,6.21-6.29,.51-12.61-.45-18.47-2.79l-54.43-20.19,4.44-11.96,54.92,20.29c6.21,2.31,11.6,2.52,16.17,.67s7.91-5.65,10.03-11.36c2.12-5.71,2.09-10.82-.15-15.24-2.24-4.41-6.46-7.77-12.67-10.07l-54.92-20.28,4.44-11.96,54.43,20.19c5.98,2.03,11.4,5.41,15.85,9.89,3.78,3.91,6.25,8.91,7.05,14.29,.75,5.98-.04,12.05-2.3,17.63-1.93,5.68-5.29,10.77-9.75,14.78v-.1Z"/><path class="cls-1" d="M131.74,319.25c-3.57,2.51-7.71,4.07-12.05,4.54l-1.39-12.79c2.37,0,4.68-.73,6.63-2.08,2.19-1.51,4-3.52,5.26-5.86,2.44-4.32,2.99-8.43,1.66-12.33-1.34-3.9-4.43-7.22-9.29-9.97l-53.97-30.51,6.28-11.14,54.02,30.54c4.92,2.61,9.17,6.31,12.42,10.84,2.77,3.94,4.23,8.64,4.18,13.45-.2,5.34-1.76,10.55-4.53,15.13-2.23,4.04-5.35,7.51-9.12,10.15l-.11,.03Z"/><path class="cls-1" d="M171.64,259.24l-7.47,10.35-73.82-53.23,7.47-10.35,73.82,53.22h0Z"/><path class="cls-1" d="M130.82,166.05l7.44-7.95,89.34,37.6-9.4,10.06-70.82-31.71,36.38,68.55-9.4,10.18-43.52-86.63v-.1Zm30.63,53.43l32.7-34.94,8.87,8.29-32.7,34.89-8.86-8.36v.13Z"/><path class="cls-1" d="M178.4,119.08l9.36-6.82,77.37,30.64-.25,2.2-42.38-58.19,10.21-7.44,53.55,73.47-9.46,6.89-76.6-29.85,.25-2.2,41.78,57.28-10.21,7.45-53.62-73.44Z"/><path class="cls-1" d="M352.57,25.47l10.43-3.09,58.04,77.66-13.19,3.91-45.06-63.17-3.29,77.53-13.19,3.91,6.25-96.75h0Zm-.57,61.57l45.88-13.62,3.45,11.63-45.88,13.62-3.45-11.63Z"/><path class="cls-1" d="M437.21,98.56c-7.71-.64-15.13-3.21-21.57-7.48l6.71-10.64c3.69,2.52,7.82,4.33,12.17,5.33,4.51,1,9.16,1.21,13.75,.61,6.5-.79,11.43-2.61,14.78-5.47,3.23-2.64,4.82-6.81,4.18-10.93h0c-.19-2.73-1.39-5.3-3.37-7.19-1.94-1.69-4.3-2.84-6.82-3.33-3.41-.66-6.86-1.08-10.33-1.24-.13-.03-.27-.03-.4,0h-.42l-.96-.07c-5.1-.18-10.17-.76-15.18-1.73-4.04-.89-7.72-2.97-10.58-5.96-3.11-3.13-5.05-7.88-5.82-14.26h0c-.76-5.02-.06-10.15,2.02-14.78,2.15-4.39,5.6-8.01,9.87-10.36,8.18-4.29,17.42-6.13,26.62-5.29,3.27,.34,6.5,1.01,9.64,2.02,3.33,1.08,6.55,2.48,9.61,4.18l-5.99,10.93c-3.43-1.99-7.13-3.49-10.97-4.44-3.44-.84-7-1.07-10.52-.65-6.17,.75-10.81,2.56-13.93,5.43-3.11,2.81-4.56,7.01-3.86,11.14h0c.19,2.7,1.46,5.22,3.54,6.96,2.06,1.61,4.49,2.69,7.06,3.15,3.73,.65,7.5,1.09,11.28,1.31h2.34c4.79,.32,9.54,1.1,14.18,2.33,3.89,1.11,7.38,3.3,10.08,6.31,2.88,3.12,4.67,7.64,5.39,13.57v.13c.78,5.02,.01,10.16-2.2,14.74-2.3,4.39-5.87,7.99-10.25,10.32-5.45,2.88-11.41,4.66-17.55,5.24-4.16,.53-8.36,.61-12.53,.25l.06-.11Z"/><path class="cls-1" d="M506.96,94.34h-12.76l.22-91h12.76l-.22,91Z"/><path class="cls-1" d="M558.78,6.83l10.79,1.39,21.63,94.51-13.65-1.75-15.63-76.02-34.39,69.57-13.65-1.75L558.78,6.85h0Zm-25.46,56.06l47.45,6.11-1.55,12.03-47.46-6.11,1.56-12.03Z"/><path class="cls-1" d="M624.75,17.98l11,3.62,20.22,80.76-1.94,1.07,22.48-68.34,12.01,3.94-28.4,86.35-11.14-3.65-20.5-79.65,1.94-1.07-22.14,67.34-12.01-3.94,28.4-86.35,.08-.08Z"/><path class="cls-1" d="M782.15,89.83l10.17,7.72-54.94,72.51-10.17-7.72,54.94-72.51Zm-19.5,36.1l35.15,26.57-7.33,9.75-35.15-26.64,7.33-9.67h0Zm24.48-32.33l40.64,30.79-7.33,9.68-40.64-30.79,7.33-9.68Z"/><path class="cls-1" d="M789.11,209.21c-1.33-5.27-.97-10.82,1-15.88,2.38-5.85,6.08-11.06,10.81-15.24l42.41-39.65,8.72,9.32-42.73,39.96c-4.85,4.53-7.46,9.25-7.83,14.16s1.52,9.6,5.68,14.05c4.2,4.47,8.76,6.69,13.69,6.69,4.93,0,9.82-2.29,14.68-6.84l42.73-39.96,8.72,9.32-42.41,39.65c-4.49,4.43-9.94,7.77-15.93,9.75-5.19,1.63-10.76,1.6-15.93-.1-5.66-2.01-10.71-5.43-14.68-9.93-4.24-4.25-7.31-9.52-8.93-15.31Z"/><path class="cls-1" d="M835.53,268.46c-1.42-3.61-2.38-7.39-2.87-11.24-.46-3.79-.46-7.62,0-11.41l12.53,1.31c-.62,4.43-.41,8.93,.61,13.29,1.12,4.47,3,8.71,5.57,12.53,3.6,5.52,7.42,9.12,11.45,10.82,3.8,1.73,8.24,1.3,11.64-1.11h0c2.37-1.38,4.13-3.59,4.96-6.2,.67-2.49,.67-5.11,0-7.6-.91-3.33-2.07-6.59-3.47-9.75-.03-.13-.09-.26-.17-.38s-.14-.24-.17-.38l-.36-.89c-2.11-4.66-3.86-9.49-5.21-14.43-.98-4.02-.75-8.24,.67-12.13,1.43-4.18,4.83-8.02,10.21-11.53h0c4.16-2.9,9.07-4.53,14.14-4.72,4.88-.02,9.66,1.47,13.66,4.26,7.48,5.42,13.22,12.9,16.53,21.52,1.14,3.08,1.97,6.28,2.47,9.53,.52,3.46,.69,6.96,.53,10.46l-12.45-.53c.26-3.95-.03-7.93-.88-11.8-.76-3.47-2.14-6.77-4.07-9.75-3.4-5.19-7.08-8.55-11.04-10.08-3.87-1.54-8.25-1.02-11.64,1.39h0c-2.36,1.36-4.06,3.62-4.72,6.27-.53,2.56-.42,5.22,.31,7.73,1.07,3.63,2.34,7.21,3.82,10.7,.05,.15,.11,.3,.18,.45,0,.14,.13,.28,.18,.45l.26,.64,.28,.64c1.82,4.44,3.22,9.03,4.18,13.73,.72,3.98,.31,8.08-1.18,11.84-1.52,3.96-4.77,7.57-9.75,10.84l-.13,.25c-4.13,2.87-9.03,4.44-14.07,4.5-4.96-.11-9.77-1.72-13.79-4.62-5.02-3.61-9.28-8.16-12.53-13.41-2.31-3.5-4.24-7.24-5.77-11.14l.08-.03Z"/><path class="cls-1" d="M870.24,329.14l-5.57-11.45,81.64-40.11,5.57,11.45-81.64,40.12h0Z"/><path class="cls-1" d="M885.35,355.53c1.06-5.44,3.68-10.44,7.53-14.41,4.29-4.35,9.58-7.58,15.4-9.41l24.41-8.27c5.74-2.08,11.9-2.73,17.95-1.89,5.48,.8,10.61,3.19,14.75,6.87,8.62,8.15,12.65,20.04,10.75,31.75-1.06,5.44-3.68,10.44-7.53,14.41-4.29,4.35-9.58,7.58-15.4,9.41l-24.41,8.27c-5.74,2.09-11.9,2.73-17.95,1.88-5.48-.8-10.61-3.19-14.75-6.87-8.62-8.16-12.64-20.05-10.75-31.77v.03Zm18.93,21.75c2.53,2.16,5.64,3.54,8.94,3.97,3.7,.46,7.47,.03,10.97-1.24l25.24-8.55c3.56-1.12,6.81-3.07,9.47-5.68,2.37-2.35,4-5.33,4.69-8.59,1.22-6.94-1.18-14.02-6.36-18.79-2.53-2.16-5.64-3.54-8.94-3.97-3.7-.46-7.47-.03-10.97,1.24l-25.24,8.55c-3.56,1.12-6.81,3.07-9.47,5.68-2.37,2.35-4,5.33-4.69,8.59-1.22,6.94,1.18,14.02,6.36,18.79Z"/><path class="cls-1" d="M990.72,400.87l1.6,11.46-63.52,53.75-1.81-1.27,71.27-9.92,1.74,12.53-90.04,12.53-1.62-11.59,62.48-53.48,1.82,1.27-70.21,9.75-1.74-12.53,90.04-12.53v.03Z"/></svg>