<?xml version="1.0" encoding="UTF-8"?><svg id="a" xmlns="http://www.w3.org/2000/svg" viewBox="0 0 1000 1000"><defs><style>.b{fill:#1d1d1b;}</style></defs><g><path class="b" d="M856.19,548.63l-1.67,9.01-64.22-11.93,1.67-9.01,64.22,11.93Zm-29.44-.9l-5.79,31.14-8.57-1.59,5.79-31.14,8.57,1.59Zm28.62,5.32l-6.69,36-8.57-1.59,6.69-36,8.57,1.59Z"/><path class="b" d="M781.76,591.53c2.98-2.55,6.48-4.04,10.52-4.46s8.46,.26,13.26,2.04l39.08,14.5-3.19,8.59-39.38-14.61c-4.46-1.66-8.33-1.81-11.61-.48-3.28,1.34-5.68,4.06-7.2,8.16-1.53,4.13-1.5,7.77,.11,10.94,1.6,3.17,4.64,5.58,9.1,7.23l39.38,14.61-3.19,8.59-39.08-14.5c-4.8-1.78-8.6-4.15-11.38-7.1-2.79-2.95-4.47-6.37-5.06-10.26-.59-3.89-.03-8.11,1.65-12.66,1.68-4.52,4-8.06,6.98-10.61Z"/><path class="b" d="M764.41,632.27c2.65-1.84,5.54-2.92,8.65-3.26l1,9.18c-1.69,0-3.28,.5-4.76,1.49-1.48,.98-2.74,2.39-3.77,4.21-1.75,3.1-2.15,6.05-1.19,8.85,.96,2.8,3.19,5.18,6.69,7.16l38.75,21.91-4.51,7.98-38.79-21.93c-3.94-2.23-6.91-4.82-8.92-7.78-2.01-2.96-2.99-6.18-2.95-9.67,.04-3.49,1.13-7.1,3.25-10.86,1.71-3.02,3.89-5.46,6.55-7.29Z"/><path class="b" d="M735.76,675.36l5.36-7.43,52.97,38.22-5.36,7.43-52.97-38.21Z"/><path class="b" d="M765.07,742.27l-5.34,5.71-64.15-27.04,6.75-7.22,50.85,22.77-26.12-49.22,6.75-7.22,31.25,62.2Zm-22-38.36l-23.48,25.1-6.37-5.95,23.48-25.1,6.36,5.95Z"/><path class="b" d="M730.91,776.02l-6.72,4.9-55.55-21.99,.18-1.58,30.43,41.75-7.33,5.34-38.45-52.75,6.79-4.95,55.03,21.43-.18,1.58-29.98-41.13,7.33-5.35,38.45,52.75Z"/><path class="b" d="M605.86,843.21l-7.49,2.22-41.67-55.76,9.48-2.81,32.35,45.36,2.36-55.67,9.47-2.81-4.49,69.47Zm.41-44.22l-32.94,9.78-2.48-8.35,32.94-9.78,2.48,8.35Z"/><path class="b" d="M545.08,790.73c2.87,.26,5.58,.83,8.15,1.73,2.57,.9,5.01,2.11,7.34,3.64l-4.82,7.64c-2.73-1.84-5.64-3.12-8.74-3.83-3.1-.71-6.39-.86-9.87-.43-4.7,.57-8.23,1.88-10.61,3.93-2.38,2.05-3.37,4.67-2.99,7.85v.04c.28,2.26,1.08,3.98,2.42,5.16,1.33,1.18,2.97,1.98,4.91,2.39,1.94,.42,4.41,.71,7.42,.89,.09,.02,.19,.02,.29,0,.1-.01,.2-.01,.29,0l.68,.05c4.43,.22,8.06,.63,10.9,1.24,2.83,.61,5.37,2.03,7.6,4.28,2.23,2.25,3.63,5.66,4.18,10.24v.04c.49,4.01,0,7.55-1.45,10.61-1.46,3.06-3.82,5.54-7.09,7.44-3.27,1.9-7.33,3.15-12.17,3.73-2.32,.28-4.63,.3-6.94,.07-2.31-.23-4.61-.72-6.92-1.45-2.31-.73-4.61-1.73-6.9-2.99l4.3-7.85c2.69,1.51,5.31,2.58,7.87,3.19s5.08,.77,7.55,.47c4.43-.54,7.76-1.84,10-3.9,2.24-2.07,3.16-4.72,2.77-7.96v-.04c-.27-2.23-1.12-3.91-2.54-5.03-1.42-1.13-3.11-1.88-5.07-2.26-1.96-.38-4.66-.7-8.1-.94-.12-.02-.24-.02-.34-.03s-.22-.01-.34-.03c-.15-.01-.32-.02-.5-.03s-.35-.02-.5-.03c-4.02-.33-7.42-.88-10.18-1.66-2.76-.78-5.18-2.29-7.25-4.53s-3.36-5.48-3.87-9.74v-.09c-.49-3.96,.04-7.45,1.57-10.49,1.53-3.04,3.99-5.5,7.36-7.41s7.58-3.16,12.6-3.76c3.12-.38,6.12-.44,8.98-.18Z"/><path class="b" d="M495.03,793.76l9.16,.02-.17,65.32-9.16-.02,.17-65.32Z"/><path class="b" d="M457.79,856.59l-7.75-1-15.53-67.86,9.8,1.26,11.22,54.58,24.69-49.95,9.8,1.26-32.23,61.7Zm18.28-40.26l-34.08-4.39,1.11-8.64,34.08,4.39-1.11,8.64Z"/><path class="b" d="M410.42,848.6l-7.9-2.6-14.56-57.94,1.39-.77-16.14,49.07-8.62-2.83,20.39-62,7.98,2.62,14.72,57.19-1.39,.77,15.9-48.35,8.62,2.83-20.39,62Z"/><path class="b" d="M293.83,794.34l-29.18-22.11,5.26-6.94,29.18,22.11-5.26,6.95Zm17.58-23.2l-25.24-19.13,5.26-6.95,25.24,19.13-5.26,6.94Zm-14,25.92l-7.3-5.54,39.45-52.06,7.3,5.54-39.45,52.06Z"/><path class="b" d="M292.41,711.28c.95,3.8,.71,7.6-.72,11.4-1.43,3.8-4.02,7.45-7.76,10.94l-30.45,28.47-6.26-6.69,30.68-28.69c3.48-3.25,5.35-6.64,5.62-10.17,.27-3.53-1.09-6.89-4.08-10.08-3.01-3.22-6.29-4.81-9.84-4.8-3.55,.02-7.06,1.66-10.54,4.91l-30.68,28.69-6.26-6.69,30.45-28.47c3.74-3.5,7.55-5.83,11.44-7,3.88-1.17,7.7-1.15,11.44,.07s7.27,3.6,10.58,7.14c3.29,3.52,5.42,7.18,6.37,10.99Z"/><path class="b" d="M259.08,668.74c1.04,2.68,1.73,5.37,2.06,8.07,.33,2.7,.33,5.43,0,8.19l-8.99-.94c.44-3.26,.3-6.44-.44-9.54-.74-3.1-2.06-6.11-3.98-9.04-2.59-3.96-5.33-6.55-8.22-7.77-2.89-1.22-5.68-.96-8.36,.8l-.04,.02c-1.9,1.25-3.09,2.73-3.56,4.45-.47,1.72-.46,3.54,.03,5.46,.49,1.92,1.31,4.27,2.49,7.04,.02,.09,.06,.18,.12,.27,.06,.09,.1,.18,.12,.27l.26,.64c1.77,4.07,3.01,7.51,3.72,10.32,.71,2.81,.55,5.71-.48,8.71-1.03,3-3.47,5.76-7.33,8.28l-.04,.03c-3.38,2.21-6.77,3.34-10.15,3.39-3.39,.05-6.66-.97-9.81-3.06-3.15-2.09-6.07-5.17-8.74-9.26-1.28-1.96-2.32-4.02-3.14-6.19-.81-2.17-1.4-4.45-1.77-6.84-.36-2.39-.49-4.89-.38-7.51l8.94,.38c-.17,3.08,.04,5.9,.63,8.47,.59,2.57,1.56,4.89,2.92,6.97,2.44,3.73,5.09,6.15,7.93,7.24,2.84,1.09,5.63,.75,8.36-1.04l.04-.02c1.88-1.23,3.01-2.73,3.39-4.5,.38-1.77,.31-3.62-.22-5.55-.53-1.93-1.44-4.49-2.74-7.68-.04-.12-.08-.22-.13-.32-.04-.1-.09-.2-.13-.32-.06-.14-.12-.3-.19-.46-.07-.17-.14-.32-.2-.46-1.49-3.75-2.49-7.04-3.02-9.86-.52-2.82-.24-5.66,.85-8.5,1.09-2.84,3.43-5.44,7.02-7.78l.08-.05c3.33-2.18,6.7-3.26,10.1-3.23,3.4,.03,6.7,1.14,9.9,3.32s6.18,5.39,8.95,9.63c1.72,2.63,3.1,5.29,4.14,7.97Z"/><path class="b" d="M234.16,625.17l4.04,8.22-58.62,28.8-4.04-8.22,58.62-28.81Z"/><path class="b" d="M223.31,606.22c-.77,3.93-2.58,7.38-5.41,10.35-2.84,2.97-6.52,5.22-11.06,6.76l-17.53,5.94c-4.54,1.54-8.84,1.99-12.89,1.36-4.06-.63-7.58-2.28-10.59-4.93-3-2.65-5.23-6.13-6.69-10.44-1.46-4.31-1.8-8.43-1.03-12.36,.77-3.93,2.58-7.38,5.41-10.35,2.84-2.97,6.52-5.22,11.06-6.76l17.53-5.94c4.54-1.54,8.84-1.99,12.89-1.35,4.06,.63,7.58,2.28,10.58,4.93,3,2.65,5.23,6.13,6.69,10.45,1.46,4.31,1.81,8.43,1.03,12.36Zm-13.59-15.62c-1.81-1.55-3.95-2.51-6.42-2.85-2.47-.35-5.1-.05-7.88,.89l-18.13,6.14c-2.78,.94-5.05,2.3-6.8,4.08-1.75,1.78-2.87,3.84-3.37,6.17-.49,2.33-.3,4.77,.56,7.33,.86,2.55,2.2,4.61,4.01,6.16,1.81,1.55,3.95,2.5,6.42,2.85,2.47,.35,5.1,.05,7.88-.89l18.12-6.14c2.78-.94,5.05-2.3,6.8-4.08,1.75-1.78,2.88-3.84,3.37-6.17s.3-4.78-.56-7.33c-.86-2.55-2.2-4.61-4.01-6.16Z"/><path class="b" d="M147.65,573.67l-1.15-8.23,45.61-38.6,1.31,.91-51.17,7.12-1.25-8.99,64.65-9,1.16,8.32-44.86,38.4-1.31-.91,50.41-7.02,1.25,8.99-64.65,9Z"/></g><g><path class="b" d="M143.81,451.37l1.67-9.01,64.22,11.93-1.67,9.01-64.22-11.93Zm.82-4.42l6.69-36,8.57,1.59-6.69,36-8.57-1.59Zm28.62,5.32l5.79-31.14,8.57,1.59-5.79,31.14-8.57-1.59Z"/><path class="b" d="M218.24,408.47c-2.98,2.55-6.48,4.04-10.52,4.46-4.04,.42-8.46-.26-13.26-2.04l-39.08-14.5,3.19-8.59,39.38,14.61c4.46,1.66,8.33,1.81,11.61,.48,3.28-1.34,5.68-4.06,7.2-8.16,1.53-4.13,1.5-7.77-.11-10.94-1.6-3.17-4.64-5.58-9.1-7.23l-39.38-14.61,3.19-8.59,39.08,14.5c4.8,1.78,8.6,4.15,11.38,7.1,2.79,2.95,4.47,6.37,5.06,10.26,.59,3.89,.03,8.11-1.65,12.66-1.68,4.52-4,8.06-6.98,10.61Z"/><path class="b" d="M235.59,367.73c-2.65,1.84-5.54,2.92-8.65,3.26l-1-9.18c1.69,0,3.28-.5,4.76-1.49,1.49-.98,2.74-2.39,3.78-4.21,1.75-3.1,2.15-6.05,1.19-8.85-.96-2.8-3.19-5.18-6.69-7.16l-38.75-21.91,4.51-7.98,38.79,21.93c3.94,2.23,6.91,4.82,8.92,7.78,2.01,2.96,2.99,6.18,2.95,9.66-.04,3.49-1.13,7.1-3.25,10.86-1.71,3.02-3.89,5.45-6.55,7.29Z"/><path class="b" d="M264.24,324.64l-5.36,7.43-52.97-38.22,5.36-7.43,52.97,38.21Z"/><path class="b" d="M234.93,257.73l5.34-5.71,64.15,27.04-6.75,7.22-50.85-22.77,26.12,49.22-6.75,7.22-31.25-62.2Zm22,38.36l23.48-25.1,6.37,5.95-23.48,25.1-6.36-5.95Z"/><path class="b" d="M269.09,223.98l6.72-4.9,55.55,21.99-.18,1.58-30.43-41.75,7.33-5.34,38.45,52.75-6.79,4.95-55.03-21.43,.18-1.58,29.98,41.13-7.33,5.35-38.45-52.75Z"/><path class="b" d="M394.15,156.79l7.49-2.22,41.67,55.76-9.47,2.81-32.35-45.36-2.36,55.67-9.47,2.81,4.49-69.47Zm-.41,44.22l32.94-9.78,2.48,8.35-32.94,9.78-2.48-8.35Z"/><path class="b" d="M454.92,209.27c-2.87-.26-5.58-.83-8.15-1.73-2.57-.9-5.01-2.11-7.34-3.64l4.82-7.64c2.73,1.84,5.64,3.12,8.74,3.83,3.1,.71,6.39,.86,9.87,.44,4.7-.57,8.23-1.88,10.61-3.93,2.38-2.05,3.37-4.67,2.99-7.85v-.04c-.28-2.26-1.08-3.98-2.42-5.16-1.33-1.18-2.97-1.98-4.9-2.39-1.94-.41-4.41-.71-7.42-.89-.09-.02-.19-.02-.29,0-.1,.01-.2,0-.3,0l-.69-.05c-4.43-.22-8.06-.63-10.9-1.24-2.83-.61-5.37-2.03-7.6-4.28s-3.63-5.66-4.18-10.24v-.04c-.49-4.01,0-7.55,1.45-10.61,1.46-3.06,3.82-5.54,7.09-7.44,3.27-1.9,7.33-3.15,12.17-3.73,2.32-.28,4.63-.3,6.94-.07,2.31,.23,4.61,.72,6.92,1.45,2.31,.73,4.6,1.73,6.9,2.99l-4.3,7.85c-2.69-1.52-5.31-2.58-7.88-3.19-2.56-.61-5.08-.77-7.55-.47-4.43,.54-7.76,1.84-10,3.9-2.24,2.07-3.16,4.72-2.77,7.96v.04c.27,2.23,1.12,3.91,2.54,5.03,1.42,1.13,3.11,1.88,5.07,2.26s4.66,.7,8.1,.94c.12,.02,.24,.02,.34,.03,.11,0,.22,.01,.34,.03,.15,.01,.32,.02,.5,.03,.18,0,.35,.02,.5,.03,4.02,.33,7.41,.88,10.18,1.67,2.76,.78,5.18,2.29,7.24,4.53,2.07,2.24,3.36,5.48,3.87,9.74v.09c.49,3.96-.04,7.45-1.57,10.49-1.53,3.04-3.99,5.5-7.36,7.41-3.38,1.9-7.58,3.16-12.6,3.76-3.12,.38-6.12,.44-8.98,.18Z"/><path class="b" d="M504.97,206.24l-9.16-.02,.17-65.32,9.16,.02-.17,65.32Z"/><path class="b" d="M542.21,143.41l7.75,1,15.53,67.86-9.8-1.26-11.22-54.58-24.69,49.95-9.8-1.26,32.23-61.7Zm-18.28,40.26l34.08,4.39-1.11,8.64-34.08-4.39,1.11-8.64Z"/><path class="b" d="M589.58,151.41l7.9,2.6,14.56,57.94-1.39,.77,16.14-49.07,8.62,2.83-20.39,62-7.98-2.62-14.72-57.19,1.39-.77-15.9,48.35-8.62-2.83,20.39-62Z"/><path class="b" d="M702.59,202.95l7.3,5.54-39.45,52.06-7.3-5.54,39.45-52.06Zm-14,25.92l25.24,19.13-5.26,6.95-25.24-19.13,5.26-6.94Zm17.58-23.2l29.18,22.11-5.26,6.95-29.18-22.11,5.26-6.95Z"/><path class="b" d="M707.59,288.72c-.95-3.8-.71-7.6,.72-11.4,1.43-3.8,4.02-7.45,7.76-10.94l30.45-28.47,6.26,6.69-30.68,28.69c-3.48,3.25-5.35,6.64-5.62,10.17-.27,3.53,1.09,6.89,4.08,10.09,3.01,3.21,6.29,4.81,9.83,4.8,3.55-.02,7.06-1.66,10.54-4.91l30.68-28.69,6.26,6.69-30.45,28.47c-3.74,3.5-7.55,5.83-11.44,7.01-3.88,1.17-7.7,1.15-11.44-.07s-7.27-3.6-10.58-7.14c-3.29-3.52-5.42-7.18-6.37-10.99Z"/><path class="b" d="M740.92,331.26c-1.04-2.68-1.73-5.37-2.06-8.07s-.33-5.43,0-8.19l8.99,.94c-.44,3.26-.3,6.44,.44,9.54,.74,3.1,2.06,6.11,3.98,9.04,2.59,3.96,5.33,6.55,8.22,7.77,2.89,1.22,5.68,.96,8.36-.8l.04-.02c1.9-1.25,3.09-2.73,3.56-4.45,.47-1.72,.46-3.54-.03-5.46-.49-1.92-1.31-4.27-2.49-7.04-.02-.09-.06-.18-.12-.27s-.1-.18-.12-.27l-.26-.64c-1.77-4.07-3.01-7.51-3.72-10.32-.71-2.81-.55-5.71,.48-8.71,1.03-3,3.47-5.76,7.33-8.28l.04-.03c3.38-2.21,6.77-3.34,10.15-3.39,3.39-.05,6.66,.97,9.81,3.06s6.07,5.17,8.74,9.26c1.28,1.96,2.32,4.02,3.13,6.19,.81,2.17,1.4,4.45,1.77,6.84,.37,2.39,.49,4.89,.38,7.51l-8.94-.38c.17-3.08-.04-5.91-.63-8.47s-1.56-4.89-2.92-6.97c-2.44-3.73-5.08-6.15-7.93-7.24-2.84-1.09-5.63-.74-8.36,1.04l-.04,.02c-1.88,1.23-3.01,2.73-3.39,4.5s-.31,3.62,.22,5.55c.53,1.93,1.44,4.49,2.74,7.68,.04,.12,.08,.22,.13,.32,.04,.1,.09,.2,.13,.32,.06,.14,.12,.3,.19,.46,.07,.17,.14,.32,.2,.46,1.49,3.75,2.49,7.04,3.02,9.86,.52,2.82,.24,5.66-.85,8.5-1.09,2.84-3.43,5.44-7.01,7.78l-.07,.05c-3.33,2.18-6.7,3.25-10.1,3.23s-6.7-1.14-9.9-3.32c-3.2-2.18-6.18-5.39-8.96-9.63-1.72-2.63-3.1-5.29-4.14-7.97Z"/><path class="b" d="M765.84,374.83l-4.04-8.22,58.62-28.8,4.04,8.22-58.62,28.81Z"/><path class="b" d="M776.69,393.78c.77-3.93,2.58-7.38,5.41-10.35,2.84-2.97,6.52-5.22,11.06-6.76l17.53-5.94c4.54-1.54,8.84-1.99,12.89-1.36,4.06,.63,7.58,2.28,10.59,4.93s5.23,6.13,6.69,10.44c1.46,4.31,1.8,8.43,1.03,12.36s-2.58,7.38-5.41,10.35c-2.84,2.97-6.52,5.22-11.06,6.76l-17.53,5.94c-4.54,1.54-8.84,1.99-12.89,1.35-4.06-.63-7.58-2.28-10.59-4.93-3-2.65-5.23-6.13-6.69-10.45-1.46-4.31-1.81-8.43-1.03-12.36Zm13.59,15.62c1.81,1.55,3.95,2.5,6.42,2.85,2.47,.35,5.1,.05,7.88-.89l18.12-6.14c2.78-.94,5.05-2.3,6.8-4.08,1.75-1.78,2.88-3.84,3.37-6.17,.49-2.33,.3-4.77-.56-7.33-.87-2.55-2.2-4.61-4.01-6.16-1.81-1.55-3.95-2.5-6.42-2.85-2.47-.35-5.1-.05-7.88,.89l-18.12,6.14c-2.78,.94-5.05,2.3-6.8,4.08-1.75,1.78-2.88,3.84-3.37,6.17s-.3,4.78,.56,7.33c.87,2.55,2.2,4.61,4.01,6.16Z"/><path class="b" d="M852.35,426.33l1.15,8.23-45.61,38.59-1.3-.91,51.17-7.12,1.25,8.99-64.65,9-1.16-8.32,44.86-38.4,1.31,.91-50.41,7.02-1.25-8.99,64.65-9Z"/></g></svg>