<?xml version="1.0" encoding="utf-8"?>
<!-- Generator: Adobe Illustrator 26.3.1, SVG Export Plug-In . SVG Version: 6.00 Build 0)  -->
<svg version="1.1" id="Calque_1" xmlns="http://www.w3.org/2000/svg" xmlns:xlink="http://www.w3.org/1999/xlink" x="0px" y="0px"
	 viewBox="0 0 1366 768" style="enable-background:new 0 0 1366 768;" xml:space="preserve">
<g>
	<g>
		<path d="M592,309.7c57.3,2,114.7,5.4,171.5,13.5c28,4,56,9.1,83.5,15.7c12.9,3.1,25.6,6.7,37.9,11.8c6.2,2.6,12.3,5.6,18.1,9
			c4.9,3,9.8,6.8,11.4,12.6c3.7,12.9-8.5,24.1-17.9,30.8c-10,7.1-21.4,11.9-33.2,15.4c-26.3,7.9-54.1,11.6-81.5,13.9
			c-28.7,2.5-57.5,3.1-86.3,3c-28.6-0.2-57.1-1.3-85.6-3.5c-28.7-2.2-57.4-5.5-85.9-9.8c-14.4-2.2-28.7-4.6-42.9-7.4
			c-12.5-2.4-25.5-4.4-37.2-9.6c-10.9-4.9-19.8-12.7-25.2-23.4c-5.2-10.4-6.7-22.8-2.2-33.7c8.6-20.9,33.9-26.8,53.5-31.8
			c54-13.8,110.3-17,165.8-17.7c51.4-0.6,103.1,2.3,153.5,13c25,5.3,49.6,12.6,73.4,22.2c12.2,4.9,24.2,10.5,35.8,16.7
			c8.9,4.7,22.6,10.6,23,22.4c0.3,6.6-4,12.3-8.4,16.7c-4,4.1-8.7,7.3-13.8,9.9c-10.3,5.1-21.8,7.3-33,9.2c-28.3,4.7-57,7-85.6,6.7
			c-13.9-0.1-27.8-0.9-41.6-2.2c-1.9-0.2-1.9,2.8,0,3c29.6,2.8,59.5,2.9,89.2,0.3c14.6-1.3,29.1-3.2,43.5-5.7
			c11.1-2,22.2-4.6,32.1-10.3c9.2-5.3,19.9-14.6,20.6-26c0.7-11.3-9.3-18.2-18-23.1c-23.5-13.1-48.5-23.6-74.2-31.7
			c-50.7-15.9-103.9-22.4-156.9-23.9c-27-0.8-54-0.3-81,0.9c-29.1,1.3-58.1,3.7-86.8,8.6c-14.5,2.4-28.9,5.5-43.1,9.3
			c-10.8,2.9-21.8,5.9-31.5,11.5c-8.7,5-16,12.3-19.6,21.8c-4.1,10.8-2.8,22.8,1.8,33.2c4.8,10.8,13.1,19.3,23.5,24.8
			c11.3,5.9,23.9,8.3,36.3,10.7c29.3,5.7,58.7,10.3,88.3,13.8c59,6.9,118.7,9.4,178.1,7.5c29.5-1,59-3.3,88.1-8.5
			c25.2-4.5,51.8-10.2,72.3-26.4c8.9-7,18.2-17.5,15.9-29.7c-2.3-11.9-15.5-17.8-25.3-22.4c-25.4-11.9-53.7-17.3-81-22.6
			c-58-11.2-116.9-16.6-175.8-19.6c-14.5-0.7-29-1.3-43.5-1.8C590,306.6,590.1,309.6,592,309.7L592,309.7z"/>
	</g>
</g>
</svg>
