<?xml version="1.0" encoding="utf-8"?>
<!-- Generator: Adobe Illustrator 26.3.1, SVG Export Plug-In . SVG Version: 6.00 Build 0)  -->
<svg version="1.1" id="Calque_1" xmlns="http://www.w3.org/2000/svg" xmlns:xlink="http://www.w3.org/1999/xlink" x="0px" y="0px"
	 viewBox="0 0 1366 768" style="enable-background:new 0 0 1366 768;" xml:space="preserve">
<style type="text/css">
	.st0{display:none;}
	.st1{display:inline;fill:#FFFFFF;}
	.st2{display:inline;}
	.st3{stroke:#000000;stroke-width:2;stroke-miterlimit:10;}
	.st4{display:inline;fill:#1B1C1E;}
</style>
<g id="Calque_1_00000132089142908437743680000013197527940417679769_">
	<g id="Calque_1_00000170956851314334081200000000906862087293002172_">
		<g class="st0">
			<polygon class="st1" points="210.3,297.4 154,366.6 171.1,279 87.7,310.8 146.3,243.5 58.2,229.3 142.6,200.3 73.4,144 
				161,161.1 129.2,77.7 196.5,136.3 210.7,48.2 239.7,132.6 296,63.4 278.9,151 362.3,119.2 303.7,186.5 391.8,200.7 307.4,229.7 
				376.6,286 289,268.9 320.8,352.3 253.5,293.7 239.3,381.8 			"/>
			<path class="st2" d="M210.8,50.2l28.1,81.7l0.6,1.7l1.1-1.4l54.5-67L278.6,150l-0.3,1.8l1.7-0.6l80.7-30.7L304,185.6l-1.2,1.4
				l1.8,0.3l85.2,13.7l-81.7,28.1l-1.7,0.6l1.4,1.1l67,54.5L290,268.6l-1.8-0.3l0.6,1.7l30.7,80.7L254.4,294l-1.4-1.2l-0.3,1.8
				L239,379.8l-28.1-81.7l-0.6-1.7l-1.1,1.4l-54.5,67l16.5-84.7l0.3-1.8l-1.7,0.6l-80.7,30.7l56.7-65.1l1.2-1.4l-1.8-0.3L60,229.1
				l81.7-28.1l1.7-0.6l-1.4-1.1l-67-54.5l84.7,16.5l1.8,0.3l-0.6-1.7l-30.7-80.7l65.1,56.7l1.4,1.2l0.3-1.8L210.8,50.2 M210.5,46.1
				l-14.4,89.2L128,76l32.2,84.4l-88.7-17.3l70.1,57l-85.4,29.4l89.2,14.4L86,312l84.4-32.2l-17.3,88.7l57-70.1l29.4,85.4l14.4-89.2
				L322,354l-32.2-84.4l88.7,17.3l-70.1-57l85.4-29.4l-89.2-14.4L364,118l-84.4,32.2l17.3-88.7l-57,70.1L210.5,46.1L210.5,46.1z"/>
		</g>
		<g>
			<g>
				<path class="st3" d="M405.2,410.7c28.7,28,64,36.1,98.1,40.9c38.9,5.5,78,6.8,117.1,3.9s78-10,116.3-21.3
					c18.6-5.5,37.1-11.8,55.3-19.3c17.1-7,33.9-15.2,49.8-26.5c8.1-5.7,15.8-12.1,23.1-19.5c5.3-5.4,11.8-12.2,12.6-22.2
					c1.6-20.4-19.5-25.8-29.5-29.5c-37.4-14.2-75.7-22.6-114.3-27.3c-38.8-4.6-77.6-5.4-116.4-4.2c-39.2,1.2-78.6,3.3-117.6,7.8
					c-19.6,2.3-39.3,5.4-58.7,10.1c-18.6,4.5-37.5,9.9-54.8,20.4c-11.2,6.8-30.5,20.2-27.8,41.6c1.3,10.2,7.9,16.9,13.6,22.2
					c7.2,6.8,15.1,12.2,23.1,16.7c17.5,9.8,36.1,15.9,54.4,21.6c19,5.9,38.2,10.6,57.5,14.4c39.1,7.7,78.6,11.6,118.1,13.4
					c39.8,1.9,79.8,2.3,119.7,1.4c40.7-0.9,81.5-3.5,122-9.8c19.3-3,38.4-6.7,57.5-11.5c19-4.8,37.8-10.9,55.8-20.9
					c10.5-5.8,29.8-16.4,27.6-37c-1.1-10-7.5-16.9-12.9-22.5c-7.2-7.4-15.1-13.2-23.2-18c-17.1-10.2-35.3-16.9-53.4-22.9
					c-19.4-6.4-39.1-11.3-58.8-15.2c-38.9-7.7-78.1-12.2-117.3-14.3c-79.4-4.2-159,2.4-237.5,19.6c-19,4.2-37.9,9-56.7,14.4
					c-0.7,0.2-0.4,1.7,0.3,1.5c75.5-21.7,152.4-33.5,229.4-35c38.2-0.8,76.5,1,114.6,5.2c38.5,4.3,77.1,10.5,114.9,21.9
					c17.8,5.4,35.6,11.6,52.8,20.1c8.4,4.1,16.6,8.8,24.3,14.9c7.3,5.7,16.1,13,20.6,23.2c11,24.8-18.9,39.8-30.4,45.5
					c-17.4,8.8-35.6,14.4-53.7,18.8c-76.8,18.7-155.2,21.4-233,20.6c-76.2-0.8-152.9-4.9-227.9-26.5c-18-5.2-36.1-10.9-53.5-19.1
					c-8.5-4-16.9-8.7-24.8-14.7c-7-5.4-15.8-12-20-21.9c-4.9-11.5,0.4-23.5,6.6-31.3c6.9-8.5,15.8-13.8,24.1-18.2
					c17.4-9.2,35.9-14.2,54.1-18.4c38.3-8.8,77.1-11.6,115.9-14.1c37.2-2.4,74.5-3.9,111.8-2.8c37.8,1.1,75.7,4.9,113.1,13.3
					c18.5,4.2,36.8,9.4,54.9,16c10.6,3.9,42.9,11.6,32.8,36.8c-4,10.2-12.9,17-19.8,23c-7.4,6.3-15,11.9-22.9,16.9
					C816,403,799,410.5,782,417.1c-36.4,14.1-73.6,24.2-111.1,30.5c-37.6,6.3-75.4,8.7-113.3,7.2c-18.9-0.8-37.8-2.6-56.6-5.3
					c-17.1-2.5-34.2-5.9-50.8-12.2c-15.7-6-30.8-14.9-44.2-28C405.2,408.8,404.6,410.2,405.2,410.7L405.2,410.7z"/>
			</g>
		</g>
		<g class="st0">
			<g class="st2">
				<path d="M517,130.3c7.6-2.1,15.3,0.9,21.7,4.9c6.2,3.9,11.7,9,16.7,14.3c10,10.7,18,23.4,23,37.1c2.8,7.7,4.7,16.1,3.4,24.4
					c-1,6.4-4,12.5-8.3,17.4c-4.3,4.8-9.8,8.5-16,10.3c-6.4,1.8-13.4,1.6-19.8-0.4c-6.3-2-12.8-5.9-16.6-11.4
					c-2.1-3-2.6-6.6-0.8-9.9c1.7-3.3,4.7-5.6,8.1-6.7c3.7-1.3,7.7-1.4,11.5-1.3c3.5,0.1,7.1,0.4,10.6,0.8c7,0.8,13.9,2.3,20.6,4.4
					c13.6,4.1,26.4,10.4,38,18.5c11.7,8.1,22.1,18.1,30.8,29.3c9.1,11.7,16.4,24.7,21.8,38.5c5.5,13.7,9.2,28.1,11.1,42.8
					c0.5,3.6,0.8,7.2,1.1,10.8c0.1,1,1.6,1,1.5,0c-1.1-15.5-4.1-30.8-9.1-45.6c-4.9-14.6-11.8-28.5-20.6-41.2
					c-8.6-12.3-18.9-23.2-30.8-32.3c-11.7-9-24.9-16.1-38.8-20.9c-7-2.4-14.2-4.2-21.6-5.3c-3.6-0.6-7.2-0.9-10.9-1.2
					c-3.9-0.2-7.8-0.4-11.6,0.2c-6.7,1-13.6,5.4-14.3,12.7c-0.3,3.6,1.6,6.7,3.9,9.3c2.3,2.5,5,4.7,7.9,6.4c11.7,7,27,6.9,38.3-0.9
					c5.5-3.8,9.9-9,12.7-15c3.1-6.9,3.8-14.4,2.6-21.8c-1.2-8-4.3-15.7-7.8-22.9c-3.3-6.8-7.4-13.3-12.1-19.2
					c-4.7-6-10-11.6-15.9-16.5c-5.8-4.9-12.4-9.6-20-11.2c-3.6-0.8-7.3-0.8-10.8,0.2C515.7,129.1,516.1,130.6,517,130.3L517,130.3z"
					/>
			</g>
		</g>
		<g class="st0">
			<g class="st2">
				<path d="M675,353.3c-6.8-5.4-14.1-9.9-22-13.5c-0.9-0.4-1.6,0.9-0.8,1.3c7.7,3.5,15,8,21.7,13.3
					C674.7,355,675.8,353.9,675,353.3L675,353.3z"/>
			</g>
		</g>
		<g class="st0">
			<g class="st2">
				<path d="M675.4,354.2c4.9-6.4,10.7-12.1,17.2-16.8c0.8-0.6,0-1.9-0.8-1.3c-6.7,4.9-12.7,10.7-17.7,17.3
					C673.5,354.2,674.8,354.9,675.4,354.2L675.4,354.2z"/>
			</g>
		</g>
	</g>
	<g id="Calque_2_00000145020127656052266560000013067964136604672655_">
	</g>
</g>
<g id="Calque_2_00000031205900556520434240000011785839978371085502_" class="st0">
	<path class="st4" d="M683,476.5L683,476.5c0-51.1-41.4-92.5-92.5-92.5l0,0c51.1,0,92.5-41.4,92.5-92.5l0,0
		c0,51.1,41.4,92.5,92.5,92.5l0,0C724.4,384,683,425.4,683,476.5z"/>
</g>
</svg>
