<?xml version="1.0" encoding="utf-8"?>
<!-- Generator: Adobe Illustrator 26.3.1, SVG Export Plug-In . SVG Version: 6.00 Build 0)  -->
<svg version="1.1" id="Calque_1" xmlns="http://www.w3.org/2000/svg" xmlns:xlink="http://www.w3.org/1999/xlink" x="0px" y="0px"
	 viewBox="0 0 1000 1000" style="enable-background:new 0 0 1000 1000;" xml:space="preserve">
<style type="text/css">
	.st0{display:none;}
	.st1{display:inline;}
	.st2{fill:#4F715A;}
	.st3{fill:#4F7059;}
</style>
<g id="Calque_1_00000057862952174340867510000014855019672899274425_" class="st0">
	<g class="st1">
		<g>
			<path class="st2" d="M186.8,801.2c0.8-7.2,1.7-14.4,2.7-21.5c-1,7.8-2.1,15.5-3.1,23.3c8.1-60.2,20.6-120,40.1-177.6
				c5.6-16.4,11.7-32.6,18.4-48.5c-2.9,7-5.9,13.9-8.8,20.9c20.6-48.7,46.9-94.9,79.2-136.8c-4.6,5.9-9.1,11.8-13.7,17.7
				c28.7-37,61.8-70.5,98.9-99.2c-5.9,4.6-11.8,9.1-17.7,13.7c27.4-21,57.1-40.6,88.6-54.8c-7,2.9-13.9,5.9-20.9,8.8
				c1.8-0.8,3.6-1.3,5.6-1.7c-7.8,1-15.5,2.1-23.3,3.1c1-0.1,1.9-0.2,2.9-0.1c-7.8-1-15.5-2.1-23.3-3.1c1.3,0.2,2.2,0.4,3.4,0.9
				c-7-2.9-13.9-5.9-20.9-8.8c0.6,0.3,1.2,0.6,1.7,1c-5.9-4.6-11.8-9.1-17.7-13.7c0.8,0.6,1.4,1.2,2.1,2
				c-4.6-5.9-9.1-11.8-13.7-17.7c1,1.3,1.8,2.7,2.5,4.2c-2.9-7-5.9-13.9-8.8-20.9c2.8,7,3.8,15,5.2,22.4c1.6,8.6,3,17.2,4.2,25.9
				c-1-7.8-2.1-15.5-3.1-23.3c12.4,93.6-1.2,187.9-11.9,281c-2.6,22.9-5.4,45.9-7,69c-0.8,11.5-1.1,23-0.4,34.5
				c1.2,18.1,3.2,36.7,8.3,54.2c3.1,10.9,7,22.1,13.3,31.6c8.8,13.5,19.9,26.3,34.3,34.1c5.2,2.8,16.1,7.5,21.8,9.3
				c8.5,2.7,17.6,4.1,26.4,3.9c9.3-0.2,18.7-1.2,27.6-3.9c17.9-5.5,28.5-12.5,42.4-24.9c8.8-7.8,15-18.2,22-27.7
				c11.1-14.9,21.5-30.2,31.7-45.7c23.1-35.1,45.2-70.9,70.8-104.2c-4.6,5.9-9.1,11.8-13.7,17.7c20.5-26.5,43.3-51.1,69.8-71.6
				c-5.9,4.6-11.8,9.1-17.7,13.7c6.7-5.2,13.7-10.1,20.8-14.7c-42.8-17.4-85.7-34.9-128.5-52.3c7.1,27.9,17,54.7,28.2,81.2
				c6,14.2,11.7,29.2,19.6,42.5c4.8,8,11,15.3,16.9,22.5c4,4.9,8.5,7.8,13.6,11.8c3.2,2.5,7.4,6.1,11.2,8.5
				c7.1,4.4,15.8,7.2,23.5,10.2c1.2,0.5,2.3,0.9,3.6,1.3c0.6,0.2,1.2,0.3,1.8,0.4c7,1.4,17.4,2.6,24.5,3.3
				c6.2,0.6,12.3-0.8,18.3-1.7c6.6-0.9,12.7-1.2,18.9-3.5c9-3.3,18.3-6.9,26.8-11.6c2.5-1.4,4.9-3,7.2-4.7
				c16-11.8,30.2-24.4,44.7-37.9c19.7-18.3,39.4-36.6,59.1-54.9c22.4-20.8,44.9-41.6,67.3-62.5c8.5-7.9,14.6-17.3,18.1-28.2
				c5.5-10.4,8-21.7,7.5-33.7c0.5-12-2.1-23.3-7.5-33.7c-3.5-10.8-9.6-20.2-18.1-28.2c-5.9-4.6-11.8-9.1-17.7-13.7
				c-13.6-7.9-28.4-11.9-44.2-11.9c-7.8,1-15.5,2.1-23.3,3.1c-14.8,4.2-27.7,11.7-38.6,22.5c-39.8,36.9-79.6,73.9-119.4,110.8
				c-10.7,9.9-21,20.5-32.4,29.5c5.9-4.6,11.8-9.1,17.7-13.7c-4.2,3.2-8.6,6-13.5,8.1c7-2.9,13.9-5.9,20.9-8.8
				c-2.8,1.1-5.5,1.9-8.4,2.4c7.8-1,15.5-2.1,23.3-3.1c-2.5,0.3-4.9,0.3-7.3,0c7.8,1,15.5,2.1,23.3,3.1c-2.1-0.4-4-0.9-6-1.8
				c7,2.9,13.9,5.9,20.9,8.8c-1.8-0.9-3.4-1.9-5-3.1c5.9,4.6,11.8,9.1,17.7,13.7c-1.8-1.5-3.3-3.1-4.8-5c4.6,5.9,9.1,11.8,13.7,17.7
				c-3.8-5-6.4-10.7-9.1-16.3c-3.2-6.8-6.3-13.7-9.3-20.6c2.9,7,5.9,13.9,8.8,20.9c-9.7-23-17.6-46.6-23.8-70.7
				c-4.2-14.8-11.7-27.7-22.5-38.6c-7.9-8.5-17.3-14.6-28.2-18.1c-10.4-5.5-21.7-8-33.7-7.5c-15.8,0-30.5,4-44.2,11.9
				c-41,26.6-76.8,59.6-106.8,98.1c-16.7,21.5-32.9,43.2-48.1,65.9c-11.5,17.2-22.6,34.5-33.9,51.8c-12.6,19.3-25.6,38.4-39.5,56.8
				c4.6-5.9,9.1-11.8,13.7-17.7c-1.7,2.1-3.4,4-5.5,5.7c5.9-4.6,11.8-9.1,17.7-13.7c-1,0.7-1.9,1.2-2.9,1.7c7-2.9,13.9-5.9,20.9-8.8
				c-0.7,0.3-1.4,0.5-2.1,0.6c7.8-1,15.5-2.1,23.3-3.1c-1.2,0.2-2.2,0.2-3.3,0c7.8,1,15.5,2.1,23.3,3.1c-0.7-0.1-1.4-0.3-2-0.6
				c7,2.9,13.9,5.9,20.9,8.8c-0.6-0.3-1.2-0.6-1.7-1c5.9,4.6,11.8,9.1,17.7,13.7c-0.8-0.7-1.4-1.3-2.1-2.2
				c4.6,5.9,9.1,11.8,13.7,17.7c-0.8-1.1-1.5-2.3-2-3.6c2.9,7,5.9,13.9,8.8,20.9c-3.5-8.2-5.1-17.4-6.4-26.2
				c1,7.8,2.1,15.5,3.1,23.3c-2.6-19.9-1.5-40,0.3-59.9c1.8-20.1,4.1-40.1,6.4-60.1c4.7-40.7,9.9-81.5,13.1-122.4
				c3.2-40.5,4.5-81.3,1.6-121.8c-2-27.7-5.6-55.5-10.9-82.9c-0.9-4.6-1.8-9.1-2.9-13.7c-0.4-1.8-0.8-3.6-1.4-5.3
				c-1.4-4.1-3.6-8.7-5.1-12.3c-1.3-3.2-3.4-9.3-5.8-13.1c-9.6-15.3-20.6-26.8-36.3-36c-22.6-13.1-51.6-16.6-76.5-8.9
				c-15,4.6-29.9,12.6-43.9,20.2c-7.7,4.1-15.2,8.5-22.6,13c-14.5,8.9-28.6,18.5-42.2,28.8c-32.5,24.6-63.3,50.4-90.8,80.5
				c-15.9,17.4-30.3,36-44.6,54.7c-9.9,13-19.3,26.4-28.2,40.2c-21.4,33.3-38.6,68.7-54,105.1C64.2,558.5,50.4,598,40,638.8
				c-9.4,37.1-16.5,74.7-21.7,112.6c-2.3,16.6-4.6,33.2-6.5,49.8c-0.5,12,2.1,23.3,7.5,33.7c3.5,10.8,9.6,20.2,18.1,28.2
				c7.9,8.5,17.3,14.6,28.2,18.1c10.4,5.5,21.7,8,33.7,7.5c7.8-1,15.5-2.1,23.3-3.1c14.8-4.2,27.7-11.7,38.6-22.5
				c4.6-5.9,9.1-11.8,13.7-17.7C182.7,831.7,186.7,817,186.8,801.2L186.8,801.2z"/>
		</g>
	</g>
</g>
<g id="Calque_2_00000085247073886273907160000012537047464262782895_">
	<g>
		<g>
			<path class="st3" d="M186.8,801.2c0.8-7.2,1.7-14.4,2.7-21.5c-1,7.8-2.1,15.5-3.1,23.3c8.1-60.2,20.6-120,40.1-177.6
				c5.6-16.4,11.7-32.6,18.4-48.5c-2.9,7-5.9,13.9-8.8,20.9c20.6-48.7,46.9-94.9,79.2-136.8c-4.6,5.9-9.1,11.8-13.7,17.7
				c28.7-37,61.8-70.5,98.9-99.2c-5.9,4.6-11.8,9.1-17.7,13.7c27.4-21,57.1-40.6,88.6-54.8c-7,2.9-13.9,5.9-20.9,8.8
				c1.8-0.8,3.6-1.3,5.6-1.7c-7.8,1-15.5,2.1-23.3,3.1c1-0.1,1.9-0.2,2.9-0.1c-7.8-1-15.5-2.1-23.3-3.1c1.3,0.2,2.2,0.4,3.4,0.9
				c-7-2.9-13.9-5.9-20.9-8.8c0.6,0.3,1.2,0.6,1.7,1c-5.9-4.6-11.8-9.1-17.7-13.7c0.8,0.6,1.4,1.2,2.1,2
				c-4.6-5.9-9.1-11.8-13.7-17.7c1,1.3,1.8,2.7,2.5,4.2c-2.9-7-5.9-13.9-8.8-20.9c2.8,7,3.8,15,5.2,22.4c1.6,8.6,3,17.2,4.2,25.9
				c-1-7.8-2.1-15.5-3.1-23.3c12.4,93.6-1.2,187.9-11.9,281c-2.6,22.9-5.4,45.9-7,69c-0.8,11.5-1.1,23-0.4,34.5
				c1.2,18.1,3.2,36.7,8.3,54.2c3.1,10.9,7,22.1,13.3,31.6c8.8,13.5,19.9,26.3,34.3,34.1c5.2,2.8,16.1,7.5,21.8,9.3
				c8.5,2.7,17.6,4.1,26.4,3.9c9.3-0.2,18.7-1.2,27.6-3.9c17.9-5.5,28.5-12.5,42.4-24.9c8.8-7.8,15-18.2,22-27.7
				c11.1-14.9,21.5-30.2,31.7-45.7c23.1-35.1,45.2-70.9,70.8-104.2c-4.6,5.9-9.1,11.8-13.7,17.7c20.5-26.5,43.3-51.1,69.8-71.6
				c-5.9,4.6-11.8,9.1-17.7,13.7c6.7-5.2,13.7-10.1,20.8-14.7c-42.8-17.4-85.7-34.9-128.5-52.3c7.1,27.9,17,54.7,28.2,81.2
				c6,14.2,11.7,29.2,19.6,42.5c4.8,8,11,15.3,16.9,22.5c4,4.9,8.5,7.8,13.6,11.8c3.2,2.5,7.4,6.1,11.2,8.5
				c7.1,4.4,15.8,7.2,23.5,10.2c1.2,0.5,2.3,0.9,3.6,1.3c0.6,0.2,1.2,0.3,1.8,0.4c7,1.4,17.4,2.6,24.5,3.3
				c6.2,0.6,12.3-0.8,18.3-1.7c6.6-0.9,12.7-1.2,18.9-3.5c9-3.3,18.3-6.9,26.8-11.6c2.5-1.4,4.9-3,7.2-4.7
				c16-11.8,30.2-24.4,44.7-37.9c19.7-18.3,39.4-36.6,59.1-54.9c22.4-20.8,44.9-41.6,67.3-62.5c8.5-7.9,14.6-17.3,18.1-28.2
				c5.5-10.4,8-21.7,7.5-33.7c0.5-12-2.1-23.3-7.5-33.7c-3.5-10.8-9.6-20.2-18.1-28.2c-5.9-4.6-11.8-9.1-17.7-13.7
				c-13.6-7.9-28.4-11.9-44.2-11.9c-7.8,1-15.5,2.1-23.3,3.1c-14.8,4.2-27.7,11.7-38.6,22.5c-39.8,36.9-79.6,73.9-119.4,110.8
				c-10.7,9.9-21,20.5-32.4,29.5c5.9-4.6,11.8-9.1,17.7-13.7c-4.2,3.2-8.6,6-13.5,8.1c7-2.9,13.9-5.9,20.9-8.8
				c-2.8,1.1-5.5,1.9-8.4,2.4c7.8-1,15.5-2.1,23.3-3.1c-2.5,0.3-4.9,0.3-7.3,0c7.8,1,15.5,2.1,23.3,3.1c-2.1-0.4-4-0.9-6-1.8
				c7,2.9,13.9,5.9,20.9,8.8c-1.8-0.9-3.4-1.9-5-3.1c5.9,4.6,11.8,9.1,17.7,13.7c-1.8-1.5-3.3-3.1-4.8-5c4.6,5.9,9.1,11.8,13.7,17.7
				c-3.8-5-6.4-10.7-9.1-16.3c-3.2-6.8-6.3-13.7-9.3-20.6c2.9,7,5.9,13.9,8.8,20.9c-9.7-23-17.6-46.6-23.8-70.7
				c-4.2-14.8-11.7-27.7-22.5-38.6c-7.9-8.5-17.3-14.6-28.2-18.1c-10.4-5.5-21.7-8-33.7-7.5c-15.8,0-30.5,4-44.2,11.9
				c-41,26.6-76.8,59.6-106.8,98.1c-16.7,21.5-32.9,43.2-48.1,65.9c-11.5,17.2-22.6,34.5-33.9,51.8c-12.6,19.3-25.6,38.4-39.5,56.8
				c4.6-5.9,9.1-11.8,13.7-17.7c-1.7,2.1-3.4,4-5.5,5.7c5.9-4.6,11.8-9.1,17.7-13.7c-1,0.7-1.9,1.2-2.9,1.7c7-2.9,13.9-5.9,20.9-8.8
				c-0.7,0.3-1.4,0.5-2.1,0.6c7.8-1,15.5-2.1,23.3-3.1c-1.2,0.2-2.2,0.2-3.3,0c7.8,1,15.5,2.1,23.3,3.1c-0.7-0.1-1.4-0.3-2-0.6
				c7,2.9,13.9,5.9,20.9,8.8c-0.6-0.3-1.2-0.6-1.7-1c5.9,4.6,11.8,9.1,17.7,13.7c-0.8-0.7-1.4-1.3-2.1-2.2
				c4.6,5.9,9.1,11.8,13.7,17.7c-0.8-1.1-1.5-2.3-2-3.6c2.9,7,5.9,13.9,8.8,20.9c-3.5-8.2-5.1-17.4-6.4-26.2
				c1,7.8,2.1,15.5,3.1,23.3c-2.6-19.9-1.5-40,0.3-59.9c1.8-20.1,4.1-40.1,6.4-60.1c4.7-40.7,9.9-81.5,13.1-122.4
				c3.2-40.5,4.5-81.3,1.6-121.8c-2-27.7-5.6-55.5-10.9-82.9c-0.9-4.6-1.8-9.1-2.9-13.7c-0.4-1.8-0.8-3.6-1.4-5.3
				c-1.4-4.1-3.6-8.7-5.1-12.3c-1.3-3.2-3.4-9.3-5.8-13.1c-9.6-15.3-20.6-26.8-36.3-36c-22.6-13.1-51.6-16.6-76.5-8.9
				c-15,4.6-29.9,12.6-43.9,20.2c-7.7,4.1-15.2,8.5-22.6,13c-14.5,8.9-28.6,18.5-42.2,28.8c-32.5,24.6-63.3,50.4-90.8,80.5
				c-15.9,17.4-30.3,36-44.6,54.7c-9.9,13-19.3,26.4-28.2,40.2c-21.4,33.3-38.6,68.7-54,105.1C64.2,558.5,50.4,598,40,638.8
				c-9.4,37.1-16.5,74.7-21.7,112.6c-2.3,16.6-4.6,33.2-6.5,49.8c-0.5,12,2.1,23.3,7.5,33.7c3.5,10.8,9.6,20.2,18.1,28.2
				c7.9,8.5,17.3,14.6,28.2,18.1c10.4,5.5,21.7,8,33.7,7.5c7.8-1,15.5-2.1,23.3-3.1c14.8-4.2,27.7-11.7,38.6-22.5
				c4.6-5.9,9.1-11.8,13.7-17.7C182.7,831.7,186.7,817,186.8,801.2L186.8,801.2z"/>
		</g>
	</g>
</g>
</svg>
