<?xml version="1.0" encoding="utf-8"?>
<!-- Generator: Adobe Illustrator 26.3.1, SVG Export Plug-In . SVG Version: 6.00 Build 0)  -->
<svg version="1.1" id="Calque_1" xmlns="http://www.w3.org/2000/svg" xmlns:xlink="http://www.w3.org/1999/xlink" x="0px" y="0px"
	 viewBox="0 0 1366 768" style="enable-background:new 0 0 1366 768;" xml:space="preserve">
<style type="text/css">
	.st0{fill:#4F7059;}
	.st1{display:none;}
	.st2{display:inline;}
</style>
<g>
	<path class="st0" d="M211.2,54.3l26.8,77.9l1.2,3.4l2.3-2.8l52-63.9l-15.8,80.8l-0.7,3.5l3.4-1.3l77-29.3l-54.1,62.1l-2.4,2.7
		l3.6,0.6l81.3,13.1L307.8,228l-3.4,1.2l2.8,2.3l63.9,52l-80.8-15.8l-3.5-0.7l1.3,3.4l29.3,77l-62.1-54.1l-2.7-2.4l-0.6,3.6
		l-13.1,81.3L212,297.8l-1.2-3.4l-2.3,2.8l-52,63.9l15.8-80.8l0.7-3.5l-3.4,1.3l-77,29.3l54.1-62.1l2.4-2.7l-3.6-0.6l-81.3-13.1
		l77.9-26.8l3.4-1.2l-2.8-2.3l-63.9-52l80.8,15.8l3.5,0.7l-1.3-3.4l-29.3-77l62.1,54.1l2.7,2.4l0.6-3.6L211.2,54.3 M210.5,46.1
		l-14.4,89.2L128,76l32.2,84.4l-88.7-17.3l70.1,57l-85.4,29.4l89.2,14.4L86,312l84.4-32.2l-17.3,88.7l57-70.1l29.4,85.4l14.4-89.2
		L322,354l-32.2-84.4l88.7,17.3l-70.1-57l85.4-29.4l-89.2-14.4L364,118l-84.4,32.2l17.3-88.7l-57,70.1L210.5,46.1L210.5,46.1z"/>
</g>
<g class="st1">
	<g class="st2">
		<path d="M498.1,630.3c37.7,26.1,84.1,33.6,128.8,38.1c51.1,5.1,102.5,6.3,153.8,3.6c51.3-2.7,102.4-9.3,152.8-19.8
			c24.4-5.1,48.7-11,72.6-18c22.4-6.5,44.5-14.2,65.4-24.7c10.6-5.3,20.8-11.3,30.4-18.2c7-5,15.5-11.4,16.6-20.7
			c2.1-19-25.6-24-38.7-27.5c-49.1-13.2-99.5-21.1-150.1-25.4c-50.9-4.3-101.9-5-152.9-3.9c-51.5,1.1-103.2,3.1-154.5,7.3
			c-25.8,2.1-51.6,5-77.1,9.4c-24.4,4.2-49.2,9.2-72,19c-14.7,6.3-40,18.8-36.5,38.8c1.7,9.5,10.4,15.7,17.9,20.7
			c9.5,6.3,19.8,11.4,30.3,15.6c23,9.1,47.4,14.8,71.5,20.1c25,5.5,50.2,9.9,75.5,13.4c51.4,7.2,103.2,10.8,155.1,12.5
			c52.3,1.8,104.8,2.1,157.2,1.3c53.5-0.8,107-3.3,160.2-9.1c25.3-2.8,50.5-6.2,75.5-10.7c24.9-4.5,49.7-10.2,73.3-19.5
			c13.8-5.4,39.1-15.3,36.2-34.5c-1.4-9.3-9.9-15.7-17-21c-9.4-6.9-19.8-12.3-30.5-16.8c-22.5-9.5-46.4-15.7-70.1-21.3
			c-25.5-6-51.4-10.5-77.3-14.2c-51.1-7.2-102.6-11.4-154.1-13.3c-104.3-3.9-208.9,2.2-312,18.3c-24.9,3.9-49.8,8.4-74.5,13.4
			c-0.9,0.2-0.5,1.6,0.4,1.4c99.2-20.2,200.2-31.2,301.3-32.6c50.2-0.7,100.5,0.9,150.5,4.8c50.6,4,101.3,9.8,150.9,20.4
			c23.4,5,46.7,10.8,69.3,18.7c11,3.8,21.8,8.2,31.9,13.9c9.6,5.3,21.2,12.1,27.1,21.6c14.4,23.1-24.8,37.1-39.9,42.4
			c-22.9,8.2-46.7,13.4-70.6,17.5c-100.9,17.4-203.8,19.9-306,19.2c-100.1-0.7-200.9-4.6-299.3-24.7c-23.6-4.8-47.4-10.2-70.3-17.8
			c-11.2-3.7-22.2-8.1-32.6-13.7c-9.2-5-20.8-11.2-26.3-20.4c-6.4-10.7,0.5-21.9,8.7-29.2c9-7.9,20.7-12.9,31.7-17
			c22.8-8.6,47.2-13.2,71.1-17.1c50.3-8.2,101.3-10.8,152.2-13.1c48.9-2.2,97.8-3.6,146.8-2.6c49.7,1,99.4,4.6,148.5,12.4
			c24.3,3.9,48.4,8.8,72.1,14.9c13.9,3.6,56.3,10.8,43.1,34.3c-5.3,9.5-17,15.8-26,21.4c-9.7,5.9-19.7,11.1-30.1,15.7
			c-21.2,9.4-43.5,16.4-65.8,22.5c-47.8,13.1-96.7,22.5-145.9,28.4c-49.4,5.9-99.1,8.1-148.8,6.7c-24.8-0.7-49.7-2.4-74.4-4.9
			c-22.5-2.3-44.9-5.5-66.7-11.4c-20.6-5.6-40.4-13.9-58.1-26.1C498.1,628.5,497.3,629.8,498.1,630.3L498.1,630.3z"/>
	</g>
</g>
<g class="st1">
	<g class="st2">
		<path d="M517,130.3c7.6-2.1,15.3,0.9,21.7,4.9c6.2,3.9,11.7,9,16.7,14.3c10,10.7,18,23.4,23,37.1c2.8,7.7,4.7,16.1,3.4,24.4
			c-1,6.4-4,12.5-8.3,17.4c-4.3,4.8-9.8,8.5-16,10.3c-6.4,1.8-13.4,1.6-19.8-0.4c-6.3-2-12.8-5.9-16.6-11.4c-2.1-3-2.6-6.6-0.8-9.9
			c1.7-3.3,4.7-5.6,8.1-6.7c3.7-1.3,7.7-1.4,11.5-1.3c3.5,0.1,7.1,0.4,10.6,0.8c7,0.8,13.9,2.3,20.6,4.4c13.6,4.1,26.4,10.4,38,18.5
			c11.7,8.1,22.1,18.1,30.8,29.3c9.1,11.7,16.4,24.7,21.8,38.5c5.5,13.7,9.2,28.1,11.1,42.8c0.5,3.6,0.8,7.2,1.1,10.8
			c0.1,1,1.6,1,1.5,0c-1.1-15.5-4.1-30.8-9.1-45.6c-4.9-14.6-11.8-28.5-20.6-41.2c-8.6-12.3-18.9-23.2-30.8-32.3
			c-11.7-9-24.9-16.1-38.8-20.9c-7-2.4-14.2-4.2-21.6-5.3c-3.6-0.6-7.2-0.9-10.9-1.2c-3.9-0.2-7.8-0.4-11.6,0.2
			c-6.7,1-13.6,5.4-14.3,12.7c-0.3,3.6,1.6,6.7,3.9,9.3c2.3,2.5,5,4.7,7.9,6.4c11.7,7,27,6.9,38.3-0.9c5.5-3.8,9.9-9,12.7-15
			c3.1-6.9,3.8-14.4,2.6-21.8c-1.2-8-4.3-15.7-7.8-22.9c-3.3-6.8-7.4-13.3-12.1-19.2c-4.7-6-10-11.6-15.9-16.5
			c-5.8-4.9-12.4-9.6-20-11.2c-3.6-0.8-7.3-0.8-10.8,0.2C515.7,129.1,516.1,130.6,517,130.3L517,130.3z"/>
	</g>
</g>
<g class="st1">
	<g class="st2">
		<path d="M675,353.3c-6.8-5.4-14.1-9.9-22-13.5c-0.9-0.4-1.6,0.9-0.8,1.3c7.7,3.5,15,8,21.7,13.3C674.7,355,675.8,353.9,675,353.3
			L675,353.3z"/>
	</g>
</g>
<g class="st1">
	<g class="st2">
		<path d="M675.4,354.2c4.9-6.4,10.7-12.1,17.2-16.8c0.8-0.6,0-1.9-0.8-1.3c-6.7,4.9-12.7,10.7-17.7,17.3
			C673.5,354.2,674.8,354.9,675.4,354.2L675.4,354.2z"/>
	</g>
</g>
</svg>
